<?xml version="1.0" standalone="no"?>
<!DOCTYPE svg PUBLIC "-//W3C//DTD SVG 20010904//EN"
 "http://www.w3.org/TR/2001/REC-SVG-20010904/DTD/svg10.dtd">
<svg version="1.0" xmlns="http://www.w3.org/2000/svg"
 width="239.000000pt" height="239.000000pt" viewBox="0 0 239.000000 239.000000"
 preserveAspectRatio="xMidYMid meet">
<metadata>
Created by potrace 1.11, written by Peter Selinger 2001-2013
</metadata>
<g transform="translate(0.000000,239.000000) scale(0.100000,-0.100000)"
fill="#000000" stroke="none">
<path d="M727 2054 c-1 -1 -57 -5 -125 -8 -68 -4 -129 -9 -135 -11 -7 -2 -37
-6 -67 -10 -189 -20 -306 -110 -349 -270 -40 -149 -56 -521 -37 -830 8 -127
11 -152 31 -260 17 -88 86 -187 160 -230 35 -21 110 -49 138 -52 4 -1 24 -4
45 -7 141 -24 322 -30 822 -30 568 1 678 6 840 40 272 58 334 209 333 809 -1
341 -13 472 -54 592 -59 174 -186 237 -524 259 -80 6 -1072 13 -1078 8z m1059
-68 c61 -4 121 -9 135 -11 13 -2 42 -6 64 -10 60 -9 116 -25 157 -46 145 -74
181 -221 181 -744 1 -432 -41 -612 -156 -684 -38 -23 -152 -55 -232 -65 -222
-26 -1287 -27 -1465 0 -171 25 -229 46 -283 102 -89 92 -117 249 -117 677 -1
127 2 255 5 285 3 30 8 75 10 100 22 209 80 306 211 349 35 11 86 23 112 26
26 3 58 8 72 10 14 3 81 8 150 11 69 4 126 7 127 8 6 5 940 -2 1029 -8z"/>
<path d="M759 1518 c-3 -8 -4 -638 -1 -638 3 0 220 112 370 192 l92 49 0 -121
c0 -66 2 -120 5 -120 2 0 24 11 47 23 24 13 142 75 263 137 121 62 239 123
262 136 l42 22 -62 32 c-34 18 -84 45 -112 60 -27 15 -131 69 -230 120 -99 51
-185 97 -191 101 -20 16 -24 -4 -24 -118 l0 -114 -157 82 c-87 45 -191 100
-230 121 -40 22 -74 38 -74 36z"/>
</g>
</svg>
